# xmcd CD database file
#
# Track frame offsets:
#	150
#	25876
#	46017
#	61431
#	80662
#	101134
#	121989
#	143959
#	173801
#	193974
#	219847
#
# Disc length: 3223 seconds
#
# Revision: 0
# Processed by: cddbd v1.5.1PL0 Copyright (c) Steve Scherf et al.
# Submitted via: CDex 1.51
#
DISCID=9b0c950b
DTITLE=Hans Ulrik - Blue and Purple
DYEAR=2004
DGENRE=Jazz
TTITLE0=Poor Boy
TTITLE1=Water for Oxen
TTITLE2=Blue and Purple
TTITLE3=Red Cap
TTITLE4=Turbulence
TTITLE5=Last Dance
TTITLE6=Pow-wow
TTITLE7=Buoyancy
TTITLE8=Matchbox
TTITLE9=Little Wonders
TTITLE10=Elixir
EXTD=YEAR: 2004
EXTT0=
EXTT1=
EXTT2=
EXTT3=
EXTT4=
EXTT5=
EXTT6=
EXTT7=
EXTT8=
EXTT9=
EXTT10=
PLAYORDER=
